<svg width="18" height="18" viewBox="0 0 18 18" fill="none" xmlns="http://www.w3.org/2000/svg">
<path d="M8.57958 18C3.8481 18 0 14.066 0 9.22886C0 4.39174 3.8481 0.470093 8.57958 0.470093C13.3111 0.470093 17.1471 4.40411 17.1471 9.24123C17.1471 14.0783 13.299 18.0124 8.57958 18.0124M8.57958 0.940196C4.10222 0.940196 0.459836 4.66391 0.459836 9.24123C0.459836 13.8185 4.10222 17.5423 8.57958 17.5423C13.0569 17.5423 16.6872 13.8185 16.6872 9.24123C16.6872 4.66391 13.0448 0.940196 8.57958 0.940196Z" fill="white"/>
<path d="M8.91831 14.2268V9.6742H10.4188L10.6366 7.89275H8.91831V6.76698C8.91831 6.24739 9.05142 5.901 9.77748 5.901H10.6971V4.30512C10.5398 4.28038 9.99529 4.2309 9.35394 4.2309C8.02284 4.2309 7.11527 5.05976 7.11527 6.58141V7.89275H5.61475V9.6742H7.11527V14.2268H8.90621H8.91831Z" fill="white"/>
</svg>
