<svg width="28" height="26" viewBox="0 0 28 26" fill="none" xmlns="http://www.w3.org/2000/svg">
<path d="M21.3179 26.0002H16.7688C16.2546 25.8199 16.1343 25.5567 16.1375 25.0627C16.1497 23.1402 16.1465 21.2173 16.137 19.2949C16.1359 19.0591 16.1073 18.8024 16.0066 18.5926C15.7326 18.0217 15.2078 17.8287 14.5851 17.8297C13.8621 17.8307 13.1386 17.8491 12.4168 17.8251C11.5873 17.7976 10.9009 18.3848 10.9237 19.2353C10.9741 21.148 10.9327 23.0633 10.9444 24.9771C10.9475 25.4553 10.7965 25.8128 10.3158 26.0002H5.34312C4.62972 25.8174 3.98893 25.5241 3.52304 24.9425C3.17535 24.5081 2.92147 24.0314 2.91829 23.4814C2.90345 20.8746 2.90716 18.2672 2.90398 15.6603C2.90398 15.5712 2.90398 15.4816 2.90398 15.4423C2.60505 15.4189 2.3358 15.4245 2.07927 15.3726C1.3648 15.229 0.769058 14.9046 0.411825 14.2599C0.381084 14.2247 0.349813 14.1891 0.319072 14.1539C0.212538 13.9181 0.106534 13.6824 0 13.4466C0 13.3447 0 13.2434 0 13.1415V12.8365C0 12.7173 0 12.5987 0 12.48C0.141515 12.2106 0.28356 11.9417 0.425076 11.6723C0.438326 11.654 0.451046 11.6357 0.464297 11.6168C0.530019 11.5308 0.584611 11.434 0.661994 11.3596C4.39333 7.77297 8.12679 4.18782 11.8597 0.602661C11.9212 0.543588 11.988 0.490625 12.0526 0.434607C12.0728 0.421876 12.0929 0.408635 12.1131 0.395904C12.6198 0.103083 13.1445 -0.0486753 13.7593 0.013963C14.3683 0.0766013 14.8612 0.307803 15.2805 0.705531C17.0841 2.41561 18.8851 4.12925 20.6814 5.84697C22.4172 7.50714 24.1434 9.17546 25.8782 10.8366C26.4135 11.3495 26.9176 11.876 27.04 12.6328C27.0193 12.9409 27.0448 13.2602 26.9695 13.5556C26.7442 14.4432 26.166 15.0365 25.2374 15.2712C24.9003 15.3563 24.5447 15.3736 24.1752 15.425C24.1752 15.4317 24.1752 15.4637 24.1752 15.4953C24.1763 18.0197 24.1795 20.5435 24.1752 23.0679C24.1752 23.3083 24.1625 23.5568 24.1016 23.788C23.8525 24.7306 23.2673 25.4156 22.3345 25.8087C22.1442 25.8892 21.9396 25.9376 21.7414 26.0002H21.3184H21.3179Z" fill="white"/>
</svg>
