<svg width="19" height="18" viewBox="0 0 19 18" fill="none" xmlns="http://www.w3.org/2000/svg">
<path d="M9.54271 18C4.81124 18 0.963135 14.066 0.963135 9.22886C0.963135 4.39174 4.81124 0.470093 9.54271 0.470093C14.2742 0.470093 18.1102 4.40411 18.1102 9.24123C18.1102 14.0783 14.2621 18.0124 9.54271 18.0124M9.54271 0.952567C5.06536 0.952567 1.42297 4.67628 1.42297 9.2536C1.42297 13.8309 5.06536 17.5546 9.54271 17.5546C14.0201 17.5546 17.6504 13.8309 17.6504 9.2536C17.6504 4.67628 14.008 0.940196 9.54271 0.940196" fill="white"/>
<path d="M9.55476 7.50928C10.4865 7.50928 11.2489 8.30103 11.2368 9.27835C11.2368 10.2186 10.4623 10.9856 9.54266 10.9856C8.62299 10.9856 7.83643 10.2062 7.83643 9.24124C7.83643 8.27629 8.59879 7.50928 9.55476 7.50928Z" fill="white"/>
<path d="M12.2169 7.08867C11.8902 7.0763 11.624 6.76702 11.6361 6.44537C11.6482 6.11135 11.9265 5.85155 12.2653 5.86393C12.6042 5.8763 12.8462 6.14846 12.8341 6.50723C12.822 6.84125 12.5316 7.11341 12.2048 7.10104M9.51843 11.9258C8.06631 11.9258 6.90462 10.7258 6.90462 9.25362C6.90462 7.78145 8.07842 6.58145 9.51843 6.58145C10.9584 6.58145 12.1322 7.78145 12.1322 9.25362C12.1322 10.7258 10.9584 11.9258 9.51843 11.9258ZM13.657 7.05155C13.6207 5.76496 12.9067 5.04743 11.6482 5.01032C10.2324 4.9732 8.80447 4.9732 7.38866 5.01032C6.10596 5.03506 5.40411 5.76496 5.3678 7.08867C5.3315 8.52372 5.3315 9.95877 5.3678 11.3938C5.39201 12.7052 6.09386 13.4227 7.37656 13.4722C8.07842 13.5093 8.78027 13.4722 9.48213 13.4722C10.184 13.4722 10.91 13.4969 11.624 13.4722C12.8946 13.4227 13.6086 12.7175 13.6449 11.4309C13.6812 9.97114 13.6812 8.49898 13.6449 7.03918" fill="white"/>
</svg>
