<svg width="27" height="28" viewBox="0 0 27 28" fill="none" xmlns="http://www.w3.org/2000/svg">
<path fill-rule="evenodd" clip-rule="evenodd" d="M0 11.5V14.5C0.333333 16.1667 1.4 19.9 3 21.5C3.83333 22.6667 5.9 25.1 7.5 25.5H2C1.5 25.5 0.5 25.7 0.5 26.5C0.5 26.8333 0.7 27.6 1.5 28H21C21.6667 27.8333 22.9 27.3 22.5 26.5C22.5 26.1667 22.2 25.5 21 25.5H15.5C16.5 25 18.5 23.9 18.5 23.5C18.5 23.1667 18.6 22.5 19 22.5C19.5 22.5 22 22.5 24 20.5C25 19.5 27 17.2 27 16V13C26.8333 12.8333 26.4 12.5 26 12.5H23.5C23.5 12.1667 23.3 11.4 22.5 11H0.846867C0.564578 11 0 11.1 0 11.5ZM23 15.5L22 19L25 15H23.5C23.1 15 23 15.3333 23 15.5Z" fill="white"/>
<path d="M8.34763 1.00031V1.00005C8.8479 0.500001 9.0248 0.76532 9.8479 2C10.8479 3.50001 10.8479 5.50004 9.34758 7.00005C8.84753 7.49999 8.84758 8.50005 9.34758 9.50005C9.84758 10.5001 9.22064 10.6985 8.34763 10.0001C5.84786 8.00004 7.53139 5.6325 7.84763 5.00005C8.34763 4.00011 8.34763 2.16699 8.34763 1.00031Z" fill="white"/>
<path d="M13.1406 2.19775V2.19754C13.564 1.78308 13.7137 2.00298 14.4103 3.02633C15.2567 4.26959 15.2567 5.92729 13.9869 7.17056C13.5637 7.58493 13.5637 8.41381 13.9869 9.24265C14.4101 10.0715 13.8794 10.236 13.1406 9.65707C11.0249 7.99938 12.4497 6.03708 12.7174 5.51289C13.1406 4.6841 13.1406 3.16474 13.1406 2.19775Z" fill="white"/>
</svg>
