<svg width="29" height="27" viewBox="0 0 29 27" fill="none" xmlns="http://www.w3.org/2000/svg">
<path d="M28.08 12.7081V14.29C28.0639 14.366 28.0389 14.4412 28.0334 14.5177C27.9167 16.1655 27.5172 17.7516 26.7468 19.2239C24.2421 24.0116 20.1939 26.6313 14.6284 26.9733C11.8629 27.1434 9.24777 26.5015 6.8843 25.0994C2.62356 22.5717 0.319292 18.8757 0.0240126 14.0682C-0.126104 11.6231 0.428535 9.29218 1.66242 7.14653C3.84827 3.34543 7.17289 1.01971 11.6226 0.210563C12.1498 0.114809 12.6866 0.0688381 13.2189 0C13.7674 0 14.3158 0 14.864 0C14.9344 0.0150062 15.0042 0.0390638 15.0753 0.0438277C17.0429 0.174358 18.9082 0.670278 20.6319 1.58661C24.5844 3.68772 27.0066 6.87642 27.859 11.1496C27.9616 11.6639 28.0079 12.1884 28.0802 12.7081H28.08ZM14.0418 23.4659C16.4707 23.4647 18.9033 22.6084 20.7151 21.1121C21.2172 20.6974 21.4545 20.1629 21.4377 19.5293C21.3725 17.0699 19.3279 15.1651 16.708 15.1418C14.9267 15.126 13.1446 15.1248 11.3633 15.1422C8.87718 15.1663 6.95985 16.8258 6.65714 19.1939C6.56127 19.9445 6.74136 20.615 7.36759 21.1157C9.30053 22.6611 11.5283 23.4409 14.0418 23.4659ZM9.39665 8.50853C9.41052 10.9695 11.4928 12.9687 14.0421 12.9678C16.601 12.967 18.72 10.921 18.6878 8.48161C18.6551 6.00535 16.579 4.02738 14.028 4.04263C11.4591 4.05787 9.38302 6.05965 9.39689 8.50853H9.39665Z" fill="white"/>
</svg>
