<svg width="19" height="18" viewBox="0 0 19 18" fill="none" xmlns="http://www.w3.org/2000/svg">
<path d="M9.46923 18C4.73775 18 0.889648 14.066 0.889648 9.22886C0.889648 4.39174 4.73775 0.470093 9.46923 0.470093C14.2007 0.470093 18.0367 4.40411 18.0367 9.24123C18.0367 14.0783 14.1886 18.0124 9.46923 18.0124M9.46923 0.952567C4.99187 0.952567 1.34949 4.67628 1.34949 9.2536C1.34949 13.8309 4.99187 17.5546 9.46923 17.5546C13.9466 17.5546 17.5769 13.8309 17.5769 9.2536C17.5769 4.67628 13.9345 0.952567 9.46923 0.952567Z" fill="white"/>
<path d="M6.61334 10.5031C6.74645 10.5649 6.87956 10.5031 6.91586 10.3422C6.94007 10.2309 7.01267 9.95873 7.03687 9.84739C7.07317 9.68657 7.06107 9.63708 6.95217 9.501C6.71015 9.20409 6.55284 8.82059 6.55284 8.27626C6.55284 6.70512 7.70243 5.29481 9.55387 5.29481C11.1875 5.29481 12.083 6.32162 12.083 7.68244C12.083 9.47626 11.3085 10.9855 10.1589 10.9855C9.51757 10.9855 9.04563 10.4536 9.20294 9.78553C9.38446 8.99378 9.73538 8.15255 9.73538 7.58347C9.73538 7.07626 9.46917 6.64327 8.91252 6.64327C8.25907 6.64327 7.73873 7.33605 7.73873 8.25151C7.73873 8.83296 7.93234 9.2412 7.93234 9.2412C7.93234 9.2412 7.26679 12.1237 7.14578 12.6309C6.91586 13.633 7.10948 14.8701 7.12158 14.9938C7.12158 15.068 7.21839 15.0804 7.26679 15.0309C7.3273 14.9567 8.10176 13.967 8.36798 12.9897C8.44059 12.7175 8.79151 11.2824 8.79151 11.2824C8.99723 11.6907 9.62648 12.0618 10.2799 12.0618C12.2403 12.0618 13.5593 10.2433 13.5593 7.79378C13.5593 5.95048 12.0346 4.2309 9.71119 4.2309C6.81906 4.2309 5.36694 6.34636 5.36694 8.11543C5.36694 9.19172 5.76627 10.1319 6.61334 10.4907V10.5031Z" fill="white"/>
</svg>
