<svg width="28" height="26" viewBox="0 0 28 26" fill="none" xmlns="http://www.w3.org/2000/svg">
<g clip-path="url(#clip0_1150_961)">
<path d="M28 0H21.6776V1.51421H26.4062V6.09346H28V0Z" fill="white"/>
<path d="M7.29712 26V24.4853H2.55321V19.9208H0.959386V26H7.29712Z" fill="white"/>
<path d="M28 19.906H26.4247V24.4675H21.6623V26H28V19.906Z" fill="white"/>
<path d="M23.1899 21.3312V19.8012L23.1973 19.8084H21.6273V16.7545H23.1973L23.1893 16.7616V15.2479H21.6262V13.7266H24.7583V12.2068H16.8596V13.7149L16.8516 13.7078H20.0065V18.285H18.4359L18.4439 18.2779V19.7921H20.007V21.3114H16.8717V19.8226H15.2885V21.32H13.6973V22.8413H21.604V21.3241H23.1973L23.1899 21.3312Z" fill="white"/>
<path d="M13.6836 16.7611V15.2433H8.93073V13.7072L8.93867 13.7143H7.34696L7.3549 13.7072V15.2214H4.19952V22.8413H12.0993V19.8098H13.6847V18.2773L13.6926 18.2844H12.1231V16.7539H13.6926L13.6847 16.7611H13.6836ZM10.5129 21.3134H5.78065V16.7723H10.5129V21.3134Z" fill="white"/>
<path d="M15.2757 4.56704C15.2757 5.07687 15.2757 5.5872 15.2757 6.09702L15.2683 6.0899H16.8426V10.6473H24.7588V3.05792H16.8622V4.57417H15.2683L15.2757 4.56704ZM23.1787 4.57569V9.12595H18.456V4.57569H23.1787Z" fill="white"/>
<path d="M8.93081 12.191V10.6768H12.0862V3.06506H4.19272V10.6585H7.35392V12.191L7.34598 12.1839H8.93769L8.92975 12.191H8.93081ZM10.504 4.57571V9.12596H5.78126V4.57571H10.504Z" fill="white"/>
<path d="M0.965701 0.0142212V6.07868H2.53466V1.5325H7.28174V0.0142212H0.965173H0.965701Z" fill="white"/>
<path d="M8.93078 13.7073C10.9458 13.7083 12.9609 13.7093 14.9754 13.7108C15.0722 13.7108 15.1685 13.7144 15.2659 13.7164L15.2574 13.7236V10.6753H13.6916V12.1905C12.0909 12.1905 10.5109 12.1905 8.93078 12.1905L8.93872 12.1834V13.7139L8.93078 13.7068V13.7073Z" fill="white"/>
<path d="M7.35425 12.191H4.20046V13.7073C5.2519 13.7073 6.30281 13.7073 7.35425 13.7073L7.34631 13.7144V12.1839L7.35425 12.191Z" fill="white"/>
<path d="M16.8608 15.2306V18.2773C17.3984 18.2773 17.9217 18.2773 18.4451 18.2773L18.4371 18.2844V15.2377H16.8528L16.8608 15.2306Z" fill="white"/>
<path d="M23.19 19.8012H24.76V16.7616C24.2372 16.7616 23.7133 16.7616 23.19 16.7616L23.1979 16.7545V19.8083L23.19 19.8012Z" fill="white"/>
<path d="M15.2764 6.09703H13.7053V9.13053H15.2684C15.2684 8.1119 15.2684 7.1009 15.2684 6.0899L15.2758 6.09703H15.2764Z" fill="white"/>
<path d="M16.8606 13.7144C16.3267 13.7174 15.7922 13.7205 15.2578 13.7235C15.2578 13.7235 15.2662 13.7164 15.2657 13.7169C15.2657 14.2145 15.2657 14.7116 15.2657 15.2311C15.8118 15.2311 16.3362 15.2311 16.8606 15.2311L16.8527 15.2383V13.7078L16.8606 13.7149V13.7144Z" fill="white"/>
<path d="M13.6837 18.2778H15.2532V16.7616C14.7298 16.7616 14.207 16.7616 13.6837 16.7616L13.6916 16.7545V18.2849L13.6837 18.2778Z" fill="white"/>
<path d="M15.2684 4.57414V3.06451H13.6984V4.56702C14.2292 4.56702 14.7525 4.56702 15.2764 4.56702L15.269 4.57414H15.2684Z" fill="white"/>
<path d="M23.1978 21.3241V22.8337H24.7678V21.3312C24.2371 21.3312 23.7137 21.3312 23.1899 21.3312L23.1973 21.3241H23.1978Z" fill="white"/>
<path d="M8.91479 18.2911H7.36066V19.7946H8.91479V18.2911Z" fill="white"/>
<path d="M21.604 7.60258V6.10822H20.0403V7.60258H21.604Z" fill="white"/>
<path d="M7.36554 7.61172H8.91968V6.1087H7.36554V7.61172Z" fill="white"/>
</g>
<defs>
<clipPath id="clip0_1150_961">
<rect width="27.04" height="26" fill="white" transform="matrix(-1 0 0 1 28 0)"/>
</clipPath>
</defs>
</svg>
