<svg width="19" height="18" viewBox="0 0 19 18" fill="none" xmlns="http://www.w3.org/2000/svg">
<path d="M9.50609 17.5299C4.77462 17.5299 0.926514 13.5959 0.926514 8.75874C0.926514 3.92163 4.77462 -0.0123901 9.50609 -0.0123901C14.2376 -0.0123901 18.0736 3.92163 18.0736 8.75874C18.0736 13.5959 14.2255 17.5299 9.50609 17.5299ZM9.50609 0.470084C5.02874 0.470084 1.38635 4.1938 1.38635 8.77112C1.38635 13.3484 5.02874 17.0721 9.50609 17.0721C13.9834 17.0721 17.6137 13.3484 17.6137 8.77112C17.6137 4.1938 13.9713 0.470084 9.50609 0.470084Z" fill="white"/>
<path d="M11.3697 3.50104C11.406 4.78764 12.241 5.80207 13.4752 6.03712C13.5963 6.06186 13.7173 6.06186 13.8383 6.07423C13.8867 6.07423 13.9109 6.07423 13.9109 6.13609C13.9109 6.65568 13.9109 7.17526 13.9109 7.69485C13.9109 7.69485 13.9109 7.70722 13.8988 7.73197C13.4511 7.73197 13.0033 7.65774 12.5798 7.50929C12.1441 7.36083 11.7569 7.13815 11.3818 6.85362C11.3818 6.9031 11.3818 6.94021 11.3818 6.97733C11.3818 8.14021 11.3818 9.31547 11.3818 10.4784C11.3818 11.1217 11.2487 11.7155 10.8977 12.2598C10.2201 13.299 9.26412 13.8062 8.04192 13.7443C6.69872 13.6825 5.56123 12.7299 5.1982 11.4186C4.75046 9.7732 5.70644 8.0165 7.32797 7.5464C7.7394 7.42269 8.16293 7.38557 8.58647 7.43506C8.62277 7.43506 8.65907 7.43506 8.69538 7.4598V9.14227C8.69538 9.14227 8.63487 9.14228 8.61067 9.1299C7.63049 8.88248 6.71082 9.63712 6.74712 10.6516C6.77132 11.4062 7.36427 12.0371 8.12663 12.099C8.85269 12.1608 9.55454 11.6165 9.68765 10.8866C9.71186 10.7629 9.71186 10.6268 9.71186 10.5031C9.71186 8.22681 9.71186 5.93815 9.71186 3.66186C9.71186 3.61238 9.71186 3.56289 9.71186 3.51341C10.2564 3.51341 10.8009 3.51341 11.3455 3.51341L11.3697 3.50104Z" fill="white"/>
</svg>
