<svg width="18" height="18" viewBox="0 0 18 18" fill="none" xmlns="http://www.w3.org/2000/svg">
<path d="M13.9341 6.91544C13.8252 6.49482 13.5105 6.17317 13.0991 6.06183C12.3609 5.86389 9.42041 5.86389 9.42041 5.86389C9.42041 5.86389 6.47987 5.86389 5.74171 6.06183C5.34238 6.17317 5.01565 6.49482 4.90675 6.91544C4.71313 7.67008 4.71313 9.24121 4.71313 9.24121C4.71313 9.24121 4.71313 10.8123 4.90675 11.567C5.01565 11.9876 5.33028 12.3093 5.74171 12.4206C6.47987 12.6185 9.42041 12.6185 9.42041 12.6185C9.42041 12.6185 12.3609 12.6185 13.0991 12.4206C13.4984 12.3093 13.8252 11.9876 13.9341 11.567C14.1277 10.8123 14.1277 9.24121 14.1277 9.24121C14.1277 9.24121 14.1277 7.67008 13.9341 6.91544ZM8.46443 10.6763V7.81853L10.9209 9.25358L8.46443 10.6763Z" fill="white"/>
<path d="M9.43261 18C4.70114 18 0.853027 14.066 0.853027 9.22884C0.853027 4.39172 4.70114 0.457703 9.43261 0.457703C14.1641 0.457703 18.0001 4.39172 18.0001 9.22884C18.0001 14.066 14.152 18 9.43261 18ZM9.43261 0.940177C4.95526 0.940177 1.31287 4.66389 1.31287 9.24121C1.31287 13.8185 4.95526 17.5422 9.43261 17.5422C13.91 17.5422 17.5402 13.8185 17.5402 9.24121C17.5402 4.66389 13.8979 0.940177 9.43261 0.940177Z" fill="white"/>
</svg>
